<svg id="Layer_1" data-name="Layer 1" xmlns="http://www.w3.org/2000/svg" viewBox="0 0 99.24 99.31"><defs><style>.cls-1{fill:#fff}</style></defs><path class="cls-1" d="M99.24 49.62A49.62 49.62 0 1 1 49.73 0a49.42 49.42 0 0 1 49.51 49.62zM10.32 49A39.35 39.35 0 1 0 50 10.35 39.56 39.56 0 0 0 10.32 49z"/><path class="cls-1" d="M42.88 49.14c-5.15-4.5-9.38-8-13.33-11.74-3.55-3.4-3.82-6.95-1.21-9.6s6-2.28 9.59 1.17c3.11 3 6.27 6 9.17 9.21 2.12 2.36 3.7 2.07 5.71-.08 3.07-3.28 6.32-6.4 9.52-9.56 2.88-2.85 6.18-3.78 9.18-.59s2 6.42-1 9.21c-4 3.75-8 7.48-12.57 11.76l11.86 11.9c3.68 3.7 4.36 7.36 1.88 10-2.68 2.9-6.58 2.39-10.37-1.57-3.55-3.71-6.92-7.6-11.4-12.55-4.54 5-8.13 9.08-11.9 13-3.41 3.53-6.95 3.92-9.63 1.37s-2.33-6.31 1.08-9.62c3.92-3.82 8.05-7.45 13.42-12.31z"/></svg>