<svg id="Layer_1" data-name="Layer 1" xmlns="http://www.w3.org/2000/svg" viewBox="0 0 99.44 99.31"><defs><style>.cls-1{fill:#fff}</style></defs><path class="cls-1" d="M49.68 99.31A49.71 49.71 0 0 1 0 49.24C.11 22 22.56-.09 50 0a49.66 49.66 0 0 1-.35 99.31zM10.48 49.5a39.31 39.31 0 1 0 39.57-39.13A39.35 39.35 0 0 0 10.48 49.5z"/><path class="cls-1" d="M40 59.06c-3.75-3.52-6.8-6.56-10-9.38-2.61-2.26-5.58-2.37-8.14 0s-2.62 5.49-.36 8.06c4.39 5 9 9.85 13.66 14.56 2.76 2.78 6.18 2.91 8.87 0q15.14-16.24 30-32.81c2.35-2.62 2-5.67-.53-8s-5.49-2.08-8.15.07a26.87 26.87 0 0 0-2.73 2.9z"/><path class="cls-1" d="M40 59.06l22.52-24.6a26.87 26.87 0 0 1 2.73-2.9c2.66-2.15 5.57-2.46 8.15-.07s2.88 5.41.53 8Q59.06 56.05 43.94 72.33c-2.69 2.89-6.11 2.76-8.87 0-4.7-4.71-9.27-9.56-13.66-14.56-2.26-2.57-2.24-5.63.36-8.06s5.53-2.27 8.14 0c3.25 2.79 6.3 5.83 10.09 9.35z"/></svg>