<svg data-name="Layer 1" xmlns="http://www.w3.org/2000/svg" viewBox="0 0 512 512"><path d="M204.5 463.09v32.25a7.7 7.7 0 0 1-12.54 6h0c-1.94-1.56-48-39-94.78-92.66C32.7 334.64 0 268.18 0 211.15v-3.91C0 96.81 90.3 3 200.71 1 315.2-1 409 91.48 409 205.5v5.8a6.66 6.66 0 0 1-11.15 4.91L370.16 191a6.72 6.72 0 0 1-2.13-4.22c-9.47-83-80.91-147.45-166.77-145.8C112.49 42.65 39.9 118.23 39.9 207v4.14c0 94.38 119.1 208.23 162 246.16a7.72 7.72 0 0 1 2.6 5.79zM342.38 431h29.49a15.19 15.19 0 0 0 15.18-15.19v-29.53a15.19 15.19 0 0 0-15.18-15.19h-29.49a15.19 15.19 0 0 0-15.18 15.19v29.48A15.19 15.19 0 0 0 342.38 431zM200.52 120.8a84.79 84.79 0 1 1-80.72 80.72 84.87 84.87 0 0 1 80.72-80.72zm4.63 39.81a44.89 44.89 0 1 0 44.18 42.52 44.94 44.94 0 0 0-44.18-42.52zm268.74 233h0v64.06a54.09 54.09 0 0 1-54.09 54.09H293.46a54.1 54.1 0 0 1-54.1-54.09V393.6h0a15.18 15.18 0 0 1-21.45-1l-6.42-7a15.19 15.19 0 0 1 1-21.45L346.39 242a15.19 15.19 0 0 1 20.47 0l133.92 122.12a15.18 15.18 0 0 1 1 21.45l-6.43 7a15.18 15.18 0 0 1-21.46 1.03zM434 357.2l-77.36-70.58-77.37 70.58v100.45a14.19 14.19 0 0 0 14.19 14.2h126.33a14.2 14.2 0 0 0 14.2-14.2z" fill="#f4a261" stroke="#fff" stroke-miterlimit="10" stroke-width="10"/></svg>