<svg id="Capa_1" data-name="Capa 1" xmlns="http://www.w3.org/2000/svg" viewBox="0 0 489.4 489.4"><defs><style>.cls-1{fill:#f4a261}</style></defs><path class="cls-1" d="M347.7 263.75h-66.5a33 33 0 0 0-33 33v51a33 33 0 0 0 33 33h66.5a33 33 0 0 0 33-33v-51a33 33 0 0 0-33-33zm9 84a9 9 0 0 1-9 9h-66.5a9 9 0 0 1-9-9v-51a9 9 0 0 1 9-9h66.5a9 9 0 0 1 9 9z"/><path class="cls-1" d="M489.4 171.05a11.14 11.14 0 0 0-1.6-5.9l-72.8-128a12.06 12.06 0 0 0-10.4-6.1H84.7a11.86 11.86 0 0 0-10.4 6.1l-72.7 128a12.13 12.13 0 0 0-1.6 5.9 70.2 70.2 0 0 0 42 64.2v211.1a12 12 0 0 0 12 12h381.3a12 12 0 0 0 12-12v-209.6a5.28 5.28 0 0 0-.1-1.3 70.39 70.39 0 0 0 42.2-64.4zM91.7 55.15h305.9l56.9 100.1H34.9zm256.6 124a46.12 46.12 0 0 1-90.8 0zm-116.3 0a46.18 46.18 0 0 1-90.9 0zm-207.2 0h90.9a46.18 46.18 0 0 1-90.9 0zm176.8 255.2h-69v-129.5a17.09 17.09 0 0 1 17.1-17.1h34.9a17.09 17.09 0 0 1 17.1 17.1v129.5zm221.7 0H225.6v-129.5a41.16 41.16 0 0 0-41.1-41.1h-34.9a41.16 41.16 0 0 0-41.1 41.1v129.6H66v-193.3c1.4.1 2.8.1 4.2.1a70.11 70.11 0 0 0 58.2-31 70.13 70.13 0 0 0 116.4 0 69.95 69.95 0 0 0 116.2 0 70.11 70.11 0 0 0 58.2 31c1.4 0 2.7-.1 4.1-.1v193.2zm-4.1-217.1a46.1 46.1 0 0 1-45.4-38h90.9a46.38 46.38 0 0 1-45.5 38z"/></svg>